<svg xmlns="http://www.w3.org/2000/svg" viewBox="0 0 413.1 413.1">
  <path d="M269.4 230.7C260.6 254 263 280 265 305c2.5 28.5 4.9 55.4-10.2 72.4-11.9 13.4-34.2 20.5-68.3 21.6-33.7 1.2-57.1-6.3-69.6-22.2-22.5-28.6-7.8-81.5 2-116.5a278 278 0 006.9-27.7 96.3 96.3 0 01-14.2-.3c-1.2 6.4-3.6 15.1-6.2 24.2-10.5 37.8-26.4 94.8.5 129 14.4 18.4 39.3 27.6 74.1 27.6h7c38-1.4 63.7-10 78.3-26.4 19-21.5 16.3-52.7 13.7-83-3.5-40.2-6.8-78.7 33.6-101.7-2.9-3.6-5.3-7.6-7-12a78 78 0 00-36.2 40.7z" fill="#2b3237"/>
  <path d="M125.8 232.7c40.6-2 67.7-29.3 70.6-42.8-17.5 13.7-40 21.2-67.2 22.4l-2.7.3H125c-33 0-59.6-8.7-79.2-25.9l-.2-.2-.2 1.1c0 12 25.8 40.6 66.1 44.7a95.7 95.7 0 0014.2.3z" fill="#c3bfb8"/>
  <path d="M31.7 109.8l-.1-5.9c0-31.1 12-63.8 34.7-76.3a15 15 0 01-6.4-11 68.4 68.4 0 00-23.4 23 120.7 120.7 0 00-16.9 73.2 13.5 13.5 0 0112.1-3zM219.6 109.4c2.7.4 5.1 1.5 7 3.3a120.7 120.7 0 00-17-73.2 68.4 68.4 0 00-23.2-23 15 15 0 01-6.4 11c22.7 12.4 34.7 45.1 34.7 76.3l-.1 5.9c1.6-.4 3.3-.6 5-.3z" fill="#2b3237"/>
  <path d="M125 212.6h1.5l2.7-.3c27.2-1.2 49.7-8.7 67.2-22.4a94.7 94.7 0 0035.2-64 15 15 0 00-5-13.2 13.5 13.5 0 00-12-3A14.4 14.4 0 00204 122c-5 39.2-35.6 61.4-84 61h-.3C75 181.5 47 159.6 42.3 122.2c-.7-6.2-5.1-11-10.6-12.3a13.2 13.2 0 00-12 3 15 15 0 00-5 13.2 94.7 94.7 0 0031 60.5l.2.2C65.5 204 92 212.6 125 212.6z" fill="#e0dcd3"/>
  <path d="M65.3 27.6c2.2 1.5 4.8 2.3 7.6 2.3 7.8 0 21.2-6.6 21.2-14.9S80.7.1 73 .1a14.5 14.5 0 00-14 16.5 15 15 0 006.4 11zM187.4 16.5l.1-1.6c0-8.2-6.3-14.9-14.1-14.9s-21.2 6.7-21.2 15c0 8.1 13.4 14.8 21.2 14.8 2.8 0 5.4-.9 7.6-2.4a15 15 0 006.4-10.9z" fill="#e6a123"/>
  <path d="M350.3 123.5a48.3 48.3 0 100 96.6 48.3 48.3 0 000-96.6zm0 87.9a39.6 39.6 0 110-79.2 39.6 39.6 0 010 79.2z" fill="#e0dcd3"/>
  <path d="M350.3 132.2a39.6 39.6 0 100 79.2 39.6 39.6 0 000-79.2zm0 58.4a18.7 18.7 0 110-37.5 18.7 18.7 0 010 37.5z" fill="#f7f1e6"/>
  <circle cx="350.3" cy="171.8" r="19.6" fill="#2b3237"/>
</svg>